<svg xmlns="http://www.w3.org/2000/svg" viewBox="0 0 255.14 226.45"><defs><style>.cls-1{fill-rule:evenodd;}</style></defs><g id="Слой_2" data-name="Слой 2"><g id="Слой_1-2" data-name="Слой 1"><path class="cls-1" d="M172.37,226.45h61.47c9.07,0,13.63,0,16.35-1.78a10.88,10.88,0,0,0,4.94-8.59c.16-3.09-2-6.86-6.29-14.22l-.44-.77-30.79-52.67-.35-.59c-4.33-7.32-6.51-11-9.32-12.44a10.79,10.79,0,0,0-9.83,0c-2.82,1.46-5.1,5.31-9.61,13.09l-30.68,52.67-.11.18c-4.49,7.75-6.73,11.62-6.57,14.8a11,11,0,0,0,4.94,8.58C158.74,226.45,163.3,226.45,172.37,226.45Z"/><path class="cls-1" d="M172,85.19a32.34,32.34,0,0,0,0-15.09c-1.08-4.53-3.55-8.84-8.42-17.35l-.11-.2-21.77-38C137.16,6.62,134.88,2.65,132,1.18a11,11,0,0,0-9.88,0c-2.88,1.47-5.16,5.44-9.67,13.36L6.53,201.26C2.07,209.07-.15,213,0,216.19A10.89,10.89,0,0,0,5,224.71c2.72,1.74,7.17,1.74,16.18,1.74H64c10.1,0,15.15,0,19.66-1.24a32.53,32.53,0,0,0,13.2-7.67c3.44-3.28,5.92-7.62,10.82-16.19l.15-.26,55.64-98.36C168.44,94.1,170.88,89.75,172,85.19Z"/></g></g></svg>