<svg xmlns="http://www.w3.org/2000/svg" viewBox="0 0 373.8 237.38"><defs><style>.cls-1{fill:#141414;}</style></defs><g id="Слой_2" data-name="Слой 2"><g id="Слой_1-2" data-name="Слой 1"><path class="cls-1" d="M370.54,106.09,319.06,13.36A26,26,0,0,0,296.36,0H195.12a26,26,0,0,0-22.7,13.36S141.68,69,126.69,96.57a4.27,4.27,0,0,1-8-2V62.22A61.22,61.22,0,0,0,57.45,1H9.3A9.3,9.3,0,0,0,0,10.3V58.45a61.2,61.2,0,0,0,32.39,54,7,7,0,0,1,0,12.45A61.18,61.18,0,0,0,0,178.91v48.16a9.3,9.3,0,0,0,9.3,9.3H57.45a61.23,61.23,0,0,0,61.23-61.23V142.86a4.27,4.27,0,0,1,8-2.05c15,27.54,45.73,83.21,45.73,83.21a26,26,0,0,0,22.7,13.36H296.36A26,26,0,0,0,319.06,224l51.48-92.73A26,26,0,0,0,370.54,106.09Zm-124.8,59.52c-23.92,0-43.31-21-43.31-46.93s19.39-46.94,43.31-46.94,43.31,21,43.31,46.94S269.66,165.61,245.74,165.61Z"/></g></g></svg>