<svg xmlns="http://www.w3.org/2000/svg" xmlns:xlink="http://www.w3.org/1999/xlink" viewBox="0 0 244.85 244.58"><defs><style>.cls-1{fill:none;}.cls-2{clip-path:url(#clip-path);}</style><clipPath id="clip-path"><rect class="cls-1" width="244.85" height="244.58"/></clipPath></defs><g id="Слой_2" data-name="Слой 2"><g id="Слой_1-2" data-name="Слой 1"><g class="cls-2"><path d="M196.21,12.5,145.12,88.32c-3.54,5.16,3.26,11.42,8.15,7.07l50.28-43.76a2,2,0,0,1,3.26,1.64V190a2,2,0,0,1-3.54,1.36L51.09,9.24A25.14,25.14,0,0,0,31.25,0H25.82A26,26,0,0,0,0,26.09v192.4a26.1,26.1,0,0,0,48.37,13.59l51.09-75.82c3.53-5.17-3.26-11.41-8.15-7.06L41,192.68a2,2,0,0,1-3.27-1.63V54.62a2,2,0,0,1,3.54-1.35L193.49,235.34a25.54,25.54,0,0,0,19.84,9.24h5.43a26.09,26.09,0,0,0,26.09-26.09V26.09A26.27,26.27,0,0,0,196.21,12.5Z"/></g></g></g></svg>